<?xml version="1.0" encoding="UTF-8"?>
<svg id="Layer_1" data-name="Layer 1" xmlns="http://www.w3.org/2000/svg" viewBox="0 0 110.17 81.9">
  <defs>
    <style>
      .cls-1 {
        fill: none;
      }

      .cls-2 {
        fill: #231f20;
      }

      .cls-3 {
        fill: #fff;
      }
    </style>
  </defs>
  <g>
    <g>
      <g id="l5u7WE">
        <g>
          <path class="cls-3" d="M106.13,24.09c-1.36-.92-3.16-1.67-4.48-2.69l-7.59-5.6c-3.59-.03-7.2.18-10.81-.08-.13-.5-.63-.93-1.03-1.33-2.38-2.35-5.19-4.46-7.67-6.75-.88-.35-6.21,1.11-6.49.97l-4.65-3.78c-.9-.63-1.8-1.26-2.63-1.94-.8-.66-2.27-2.27-3.09-2.69-.46-.25-.81-.26-1.3-.04-4.55,2.75-9.63,4.96-14.04,7.84l-7.78-.4c-3.13,2.41-6.68,4.49-9.55,7.1l-5.88.37C13.1,19.75,6.66,24.15,0,28.28c-.04.1.08.17.08.19-.06.78.04,1.59,0,2.37.34,0,.65-.11,1-.12.74-.02,2.08.15,2.61.1.31-.03,1.54-.57,2.04-.71,9.86-2.74,20.66-4.53,31.01-5.81,6.72-.83,13.7-1.15,20.24-2.71,2.69-.65,8.58-2.12,7.9-5.01-.35-1.49-2.81-2.93-4.04-4.01-1.51-1.32-3.19-2.7-3.63-4.51.37.29.76.59,1.16.85,5.61,3.64,18.95,8.95,5.86,13.63-12.71,4.54-29.53,3.58-42.9,7.18-.63.16-1.47.33-1.9.76,1.99.15,3.98.07,5.97.12,8.25.19,17.15.37,25.39.13,4.91-.15,10.14-1.23,15.03-1.82,7.96-.96,15.98-1.61,23.96-2.47l16.66-1.99c0-.19-.17-.26-.32-.36ZM17.12,23.78c.35-.44,2.05-3.7,1.86-3.9l-1.19.59-1.75.57c.34-.26.65-.55,1.01-.79.7-.49,2.55-1.77,3.26-2.06.97-.39,2.7.1,3.86-.01,1.45-.15,3.19-1.89,4.41-2.5l6.61-4.79c1.49.08,3.32-.03,4.77.09.33.03.87.09,1,.37-.43-.03-.59.16-.85.36-.63.5-1.56,1.5-2.15,2.09-.31.3-.67.72-.87,1.08l-.31-.06-.07-1.4c-.19-.24-.83.06-1.06.15-.92.34-2.16.96-2.74,1.62l2.32-.55c-.02.43-.5.71-.87.95-2.44,1.57-6.38,2.63-8.83,4.38l-8.41,3.81ZM48.24,13.85c1.84-.53,3.58-1.56,5.42-2.13.04.17-.04.3-.12.45-.67,1.21-3.92,5.56-5.07,6.37-.14.1-.36.18-.54.24-.38-.4,1.98-3.3,1.47-4.02-3.35,1.72-6.81,3.41-10.35,4.9-1.62.68-3.27,1.4-5.05,1.8l8.13-6.82,4.41-4.2c-.1-.16-.43-.02-.58.03-1.58.51-2.15,1.2-4.19,1.45-.12.02-.64.14-.42-.08,4.15-2.49,8.52-4.9,12.91-7.15.26-.13,2.24-1.09,2.34-1.02l-6.41,6.47-3.19,3.83c.37.17.87-.02,1.24-.12Z"/>
          <polygon class="cls-3" points="110.17 30.72 72.24 30.6 110.01 26.34 110.17 30.72"/>
          <path d="M56.6,3.67l-6.41,6.47-3.19,3.83c.37.17.87-.02,1.23-.12,1.84-.53,3.59-1.56,5.42-2.13.04.17-.04.3-.12.45-.66,1.21-3.92,5.56-5.06,6.37-.14.1-.36.18-.54.24-.38-.4,1.98-3.3,1.47-4.02-3.36,1.72-6.81,3.41-10.35,4.89-1.63.68-3.27,1.41-5.06,1.81l8.13-6.82,4.41-4.21c-.1-.16-.43-.01-.57.04-1.58.51-2.15,1.2-4.19,1.45-.11.01-.64.13-.42-.09,4.15-2.49,8.52-4.9,12.91-7.14.26-.13,2.24-1.09,2.34-1.02Z"/>
          <path d="M40.96,11.35c-.43-.03-.59.16-.85.37-.63.49-1.56,1.49-2.15,2.08-.31.31-.67.73-.87,1.09l-.31-.06-.07-1.41c-.19-.24-.83.06-1.06.15-.92.34-2.16.97-2.74,1.62l2.32-.55c-.02.43-.5.71-.88.95-2.43,1.57-6.37,2.63-8.83,4.38l-8.41,3.8c.35-.43,2.05-3.7,1.86-3.9l-1.18.59-1.76.57c.34-.26.65-.54,1.01-.79.7-.48,2.56-1.77,3.27-2.06.97-.39,2.69.1,3.85-.01,1.45-.14,3.19-1.88,4.41-2.5l6.61-4.79c1.5.08,3.32-.03,4.77.1.33.03.87.09,1.01.36Z"/>
        </g>
      </g>
      <g>
        <path class="cls-3" d="M.09,33.39h109.98v44.59c0,2.16-1.76,3.92-3.92,3.92H4.01c-2.16,0-3.92-1.76-3.92-3.92v-44.59H.09Z"/>
        <g>
          <path class="cls-2" d="M18.64,55.11h13.41v3.92H12.24v-21.83h19.06v3.89h-12.66v5.13h11.92v3.8h-11.92v5.1Z"/>
          <path class="cls-2" d="M42.8,59.03h-6.35v-21.83h11.38c7.68,0,10.01,3.35,10.01,6.81,0,5.25-3.94,7.96-11.75,7.96h-3.28v7.06ZM45.37,48.23c3.28,0,5.9-.69,5.9-3.89,0-2.8-2.28-3.41-5.4-3.41h-3.07v7.3h2.57Z"/>
          <path class="cls-2" d="M66.95,59.03h-6.4v-21.83h6.4v21.83Z"/>
          <path class="cls-2" d="M71.59,48.35c0-6.94,5.07-11.55,14.49-11.55,6.73,0,11.5,2.35,11.84,7.84l-5.86.36c-.37-3.11-2.2-4.37-6.06-4.37-4.9,0-7.81,2.29-7.81,7.48s2.62,7.45,7.35,7.45c4.32,0,5.82-1.63,6.52-3.92l5.77.72c-.95,5.22-6.98,7.03-12.37,7.03-9.97,0-13.87-4.28-13.87-11.04Z"/>
        </g>
      </g>
    </g>
    <g>
      <path class="cls-2" d="M10.6,67.28l2.88,8.14h-1.9l-.67-1.98h-2.71l-.63,1.98h-1.79l2.67-8.14h2.16ZM9.53,68.91h-.04l-1,3.15h2.06l-1.01-3.15Z"/>
      <path class="cls-2" d="M14.42,75.42v-8.14h2.86c2.82,0,4.04,1.52,4.04,3.95s-1.32,4.2-4.23,4.2h-2.67ZM17,74.03c1.88,0,2.53-1.02,2.53-2.71,0-2.02-.79-2.64-2.41-2.64h-.98v5.35h.86Z"/>
      <path class="cls-2" d="M24.1,75.42l-2.64-8.14h1.95l1.86,6.43h.07l1.86-6.43h1.79l-2.53,8.14h-2.34Z"/>
      <path class="cls-2" d="M31.49,73.96h3.63v1.46h-5.36v-8.14h5.16v1.45h-3.43v1.91h3.23v1.42h-3.23v1.9Z"/>
      <path class="cls-2" d="M41.04,75.42l-3.14-5.75v5.75h-1.59v-8.14h2.07l3.08,5.77v-5.77h1.57v8.14h-2Z"/>
      <path class="cls-2" d="M46.35,75.42v-6.68h-2.4v-1.46h6.51v1.46h-2.37v6.68h-1.74Z"/>
      <path class="cls-2" d="M56.04,72.24v-4.96h1.73v5.21c0,2.16-1.25,3.07-3.28,3.07-2.25,0-3.21-.99-3.21-3.12v-5.16h1.74v4.93c0,1.27.33,1.9,1.53,1.9s1.48-.54,1.48-1.87Z"/>
      <path class="cls-2" d="M65.65,75.42h-1.87l-1.61-3.09h-1.11v3.09h-1.72v-8.14h3.17c2.02,0,2.7,1.09,2.7,2.29s-.57,1.95-1.41,2.33l1.84,3.52ZM61.95,70.97c.81,0,1.47-.3,1.47-1.23,0-.78-.48-1.07-1.41-1.07h-.96v2.29h.89Z"/>
      <path class="cls-2" d="M68.29,73.96h3.63v1.46h-5.36v-8.14h5.16v1.45h-3.43v1.91h3.23v1.42h-3.23v1.9Z"/>
      <path class="cls-2" d="M80.63,74.42c-.35.73-1.33,1.14-2.33,1.14-2.45,0-3.45-1.7-3.45-4.07,0-2.63,1.35-4.35,3.95-4.35,1.78,0,3.07.8,3.22,2.85l-1.62.16c-.09-.87-.46-1.57-1.63-1.57-1.43,0-2.11,1.02-2.11,2.77,0,1.93.63,2.83,2.06,2.83,1.09,0,1.66-.63,1.66-1.42v-.29h-1.48v-1.27h3.19v4.24h-1.26l-.19-1Z"/>
      <path class="cls-2" d="M85.29,73.96h3.63v1.46h-5.36v-8.14h5.16v1.45h-3.43v1.91h3.23v1.42h-3.23v1.9Z"/>
      <path class="cls-2" d="M94.27,67.28l2.88,8.14h-1.9l-.67-1.98h-2.71l-.63,1.98h-1.79l2.67-8.14h2.16ZM93.2,68.91h-.05l-1,3.15h2.06l-1.01-3.15Z"/>
      <path class="cls-2" d="M104.4,75.42h-1.87l-1.61-3.09h-1.11v3.09h-1.72v-8.14h3.17c2.02,0,2.7,1.09,2.7,2.29s-.57,1.95-1.41,2.33l1.84,3.52ZM100.7,70.97c.81,0,1.47-.3,1.47-1.23,0-.78-.48-1.07-1.41-1.07h-.96v2.29h.89Z"/>
    </g>
    <rect class="cls-2" x="8.65" y="62.52" width="92.86" height="1.3"/>
  </g>
  <path class="cls-2" d="M110.01,26.34l-37.77,4.26-21.44.13c4.91-.15,10.14-1.23,15.03-1.82,7.96-.96,15.98-1.61,23.96-2.47l16.66-1.99,3.56,1.89Z"/>
  <polyline class="cls-1" points="72.24 30.6 110.17 30.72 110.01 26.34"/>
  <path class="cls-2" d="M64.24,22.54c-12.71,4.54-29.53,3.58-42.9,7.18-.63.16-1.47.33-1.9.76l-13.7-.37c9.86-2.74,20.66-4.53,31.01-5.81,6.72-.83,13.7-1.15,20.24-2.71,2.69-.65,8.58-2.12,7.9-5.01-.35-1.49-2.81-2.93-4.04-4.01-1.51-1.32-3.19-2.7-3.63-4.51.37.29.76.59,1.16.85,5.61,3.64,18.95,8.95,5.86,13.63Z"/>
  <line class="cls-1" x1="50.8" y1="30.73" x2="19.44" y2="30.48"/>
</svg>