<?xml version="1.0" encoding="UTF-8"?>
<svg id="Layer_1" data-name="Layer 1" xmlns="http://www.w3.org/2000/svg" viewBox="0 0 78.13 72">
  <defs>
    <style>
      .cls-1 {
        fill: none;
      }

      .cls-2 {
        fill: #fff;
      }
    </style>
  </defs>
  <g id="l5u7WE">
    <g>
      <path d="M75.27,56.23c-.96-2.14-2.24-3.9-3.18-6.27l-5.38-13.08c-2.55-.06-5.11.42-7.67-.19-.09-1.15-.44-2.17-.73-3.09-1.69-5.49-3.68-10.42-5.43-15.77-.63-.8-4.41,2.59-4.61,2.28l-3.3-8.83c-.63-1.47-1.27-2.95-1.87-4.54-.56-1.52-1.61-5.28-2.18-6.28-.33-.58-.58-.61-.93-.08-3.23,6.41-6.83,11.58-9.95,18.3l-5.52-.94c-2.22,5.63-4.74,10.49-6.78,16.58l-4.17.86C9.29,46.1,4.73,56.37,0,66.03c-.03.23.06.38.06.43-.05,1.83.03,3.71,0,5.54.24-.01.46-.27.7-.3.53-.04,1.48.37,1.85.25.22-.08,1.1-1.34,1.45-1.66,7-6.39,14.66-10.58,21.99-13.57,4.77-1.94,9.72-2.69,14.36-6.33,1.9-1.5,6.08-4.94,5.6-11.68-.25-3.49-1.99-6.84-2.86-9.36-1.07-3.09-2.26-6.31-2.58-10.53.27.67.54,1.36.83,1.98,3.97,8.49,13.44,20.9,4.15,31.82-9.01,10.6-20.94,8.35-30.43,16.75-.44.39-1.04.78-1.34,1.78,1.41.34,2.82.16,4.23.27,5.85.45,12.16.88,18.01.31,3.48-.34,7.19-2.85,10.66-4.24,5.64-2.25,11.33-3.76,16.99-5.77l11.82-4.65c-.01-.43-.12-.6-.23-.84ZM12.14,55.5c.25-1.01,1.45-8.63,1.32-9.09l-.84,1.38-1.24,1.32c.24-.6.46-1.27.71-1.84.5-1.13,1.82-4.14,2.32-4.81.68-.92,1.91.23,2.73-.03,1.03-.33,2.27-4.39,3.13-5.83l4.69-11.18c1.06.19,2.35-.07,3.38.22.23.07.62.21.71.85-.3-.06-.42.38-.6.86-.45,1.15-1.11,3.48-1.53,4.86-.22.71-.47,1.7-.61,2.53l-.22-.14-.05-3.28c-.14-.56-.59.15-.76.35-.65.79-1.52,2.26-1.94,3.79l1.65-1.28c-.01.99-.35,1.65-.62,2.22-1.73,3.67-4.52,6.13-6.27,10.23l-5.96,8.87ZM34.21,32.32c1.31-1.23,2.54-3.63,3.84-4.97.03.41-.02.7-.08,1.06-.47,2.82-2.78,12.97-3.59,14.87-.1.24-.26.43-.39.57-.27-.94,1.41-7.7,1.05-9.39-2.38,4.01-4.83,7.96-7.34,11.42-1.16,1.6-2.32,3.29-3.59,4.22l5.77-15.92,3.12-9.82c-.06-.36-.3-.03-.4.08-1.12,1.2-1.53,2.81-2.98,3.4-.08.03-.45.31-.29-.21,2.94-5.81,6.04-11.43,9.15-16.67.19-.31,1.59-2.55,1.66-2.38l-4.55,15.1-2.26,8.93c.27.4.62-.05.88-.29Z"/>
      <polygon points="78.13 71.72 51.23 71.43 78.02 61.48 78.13 71.72"/>
      <path class="cls-2" d="M40.14,8.58l-4.55,15.1-2.26,8.94c.26.4.62-.05.88-.29,1.31-1.23,2.54-3.63,3.84-4.97.03.41-.03.7-.09,1.05-.47,2.83-2.78,12.97-3.59,14.87-.1.24-.26.43-.38.57-.27-.93,1.4-7.7,1.04-9.38-2.38,4.01-4.83,7.96-7.34,11.42-1.15,1.59-2.32,3.28-3.59,4.21l5.77-15.92,3.13-9.82c-.07-.37-.3-.03-.41.08-1.12,1.19-1.53,2.81-2.97,3.39-.08.03-.46.31-.3-.2,2.94-5.81,6.04-11.43,9.15-16.67.19-.31,1.59-2.55,1.66-2.38Z"/>
      <path class="cls-2" d="M29.05,26.49c-.3-.06-.42.38-.61.85-.44,1.15-1.11,3.49-1.53,4.86-.22.71-.47,1.7-.62,2.53l-.22-.14-.05-3.28c-.13-.56-.59.15-.75.35-.65.79-1.53,2.26-1.94,3.79l1.65-1.28c-.01,1-.35,1.65-.62,2.22-1.73,3.67-4.52,6.13-6.26,10.23l-5.96,8.87c.25-1.02,1.45-8.63,1.32-9.1l-.84,1.38-1.25,1.32c.24-.6.46-1.27.72-1.84.5-1.13,1.81-4.13,2.32-4.81.68-.92,1.91.24,2.73-.03,1.03-.33,2.27-4.39,3.13-5.83l4.69-11.18c1.06.2,2.35-.06,3.38.23.23.07.62.2.71.85Z"/>
    </g>
  </g>
  <path class="cls-2" d="M45.56,52.62c-9.01,10.6-20.94,8.35-30.43,16.75-.44.39-1.04.78-1.34,1.78l-11.17.8c.22-.08,1.1-1.34,1.45-1.66,7-6.39,14.66-10.58,21.99-13.57,4.77-1.94,9.72-2.69,14.36-6.33,1.9-1.5,6.08-4.94,5.6-11.68-.25-3.49-1.99-6.84-2.86-9.36-1.07-3.09-2.26-6.31-2.58-10.53.27.67.54,1.36.83,1.98,3.97,8.49,13.44,20.9,4.15,31.82Z"/>
  <path class="cls-2" d="M78.02,61.48l-26.79,9.95-15.2.3c3.48-.34,7.19-2.85,10.66-4.24,5.64-2.25,11.33-3.76,16.99-5.77l11.82-4.65,2.52,4.41Z"/>
  <line class="cls-1" x1="36.03" y1="71.73" x2="13.79" y2="71.15"/>
  <polyline class="cls-1" points="51.23 71.43 78.13 71.72 78.02 61.48"/>
</svg>